<svg width="100" height="100" viewBox="0 0 100 100" fill="none" xmlns="http://www.w3.org/2000/svg">
<path d="M0 50C0 22.3858 22.3858 0 50 0V0C77.6142 0 100 22.3858 100 50V50C100 77.6142 77.6142 100 50 100V100C22.3858 100 0 77.6142 0 50V50Z" fill="black"/>
<path d="M20.3615 35.9091H26.8104L35.4467 56.9886H35.7876L44.424 35.9091H50.8729V65H45.8161V45.0142H45.5462L37.5064 64.9148H33.728L25.6882 44.9716H25.4183V65H20.3615V35.9091ZM56.6115 65V35.9091H61.8814V48.2244H75.3615V35.9091H80.6456V65H75.3615V52.642H61.8814V65H56.6115Z" fill="white"/>
</svg>
